<svg width="64" height="64" viewBox="0 0 64 64" fill="none" xmlns="http://www.w3.org/2000/svg">
<g clip-path="url(#clip0_4_3)">
<path d="M48 4H16C9.37258 4 4 9.37258 4 16V48C4 54.6274 9.37258 60 16 60H48C54.6274 60 60 54.6274 60 48V16C60 9.37258 54.6274 4 48 4Z" fill="#F5CA09"/>
<path d="M48 4H16C9.37258 4 4 9.37258 4 16V48C4 54.6274 9.37258 60 16 60H48C54.6274 60 60 54.6274 60 48V16C60 9.37258 54.6274 4 48 4Z" stroke="#D4AF37" stroke-width="2"/>
<path d="M28.9564 10.6862C28.6436 11.3404 28.672 11.5111 29.2409 11.9378C30.0373 12.592 30.9476 12.3644 31.1751 11.4827C31.5449 9.97511 29.5822 9.29244 28.9564 10.6862Z" fill="black" fill-opacity="0.7"/>
<path d="M31.0044 15.0667C30.3218 15.7493 30.2933 16.1476 30.8907 17.0009C31.4027 17.7689 32.4551 17.8258 33.0809 17.1147C33.7351 16.3751 33.6782 15.4649 32.9387 14.9529C32.0853 14.3556 31.6871 14.384 31.0044 15.0667Z" fill="black" fill-opacity="0.7"/>
<path d="M28.4444 19.8169C27.3067 20.2435 26.9084 22.064 27.7618 22.7751C28.16 23.1164 28.2169 23.7422 28.1031 27.2978C27.9609 32.3893 27.8187 32.7307 22.9831 40.0124C19.6267 45.104 19.5413 45.2462 19.6836 46.4978C19.8542 47.9769 20.48 48.8302 21.8169 49.3707C23.1538 49.9396 40.8462 49.9396 42.1831 49.3707C43.6907 48.7449 44.2311 47.92 44.2311 46.2418C44.2311 44.848 44.0889 44.5636 41.0453 40.0693C39.2818 37.4809 37.4329 34.4658 36.9209 33.3849C36.0391 31.5075 36.0107 31.2515 35.8969 27.2978C35.7831 23.7422 35.84 23.1164 36.2382 22.7751C36.8071 22.2915 36.8356 21.04 36.2951 20.3004C35.9253 19.8169 35.4702 19.76 32.3698 19.7031C30.4356 19.6747 28.672 19.7031 28.4444 19.8169ZM35.4987 21.5235C35.4133 21.9787 35.0151 22.0355 32 22.0355C28.9849 22.0355 28.5867 21.9787 28.5013 21.5235C28.416 21.0969 28.7289 21.04 32 21.04C35.2711 21.04 35.584 21.0969 35.4987 21.5235ZM34.7591 27.4969C34.9013 32.8729 35.1289 33.4418 39.7084 40.3538C41.6427 43.2551 43.2356 45.9289 43.2356 46.2418C43.2356 46.5831 42.9796 47.1804 42.6382 47.6071L42.0693 48.3467H32H21.9307L21.3618 47.6071C21.0204 47.1804 20.7644 46.5831 20.7644 46.2418C20.7644 45.9289 22.3573 43.2551 24.2916 40.3538C28.8711 33.4418 29.0987 32.8729 29.2409 27.4969L29.3547 23.3155H32H34.6453L34.7591 27.4969Z" fill="black" fill-opacity="0.7"/>
<path d="M31.0898 27.4684C30.8622 28.0658 31.4596 28.6631 31.8862 28.2364C32.256 27.8667 32.0284 27.0133 31.5733 27.0133C31.4027 27.0133 31.2036 27.2124 31.0898 27.4684Z" fill="black" fill-opacity="0.7"/>
<path d="M31.6871 31.9627C31.3458 32.8444 31.6871 33.4133 32.5689 33.4133C33.3369 33.4133 33.4222 33.328 33.4222 32.56C33.4222 31.8489 33.3084 31.7067 32.6258 31.6213C32.1422 31.5644 31.8009 31.6782 31.6871 31.9627Z" fill="black" fill-opacity="0.7"/>
<path d="M29.44 36.1156C29.0133 36.5707 28.9564 36.8551 29.184 37.4809C29.4116 38.1351 29.6107 38.2489 30.5778 38.2489C31.5449 38.2489 31.744 38.1351 31.9716 37.4809C32.512 35.9449 30.5493 34.8924 29.44 36.1156Z" fill="black" fill-opacity="0.7"/>
<path d="M35.2711 38.5902C35.0436 38.6756 34.4747 39.0738 34.0196 39.4436C31.744 41.3493 29.696 41.6907 27.6764 40.496C26.9653 40.0978 26.2258 39.8418 26.0267 39.9271C25.4293 40.1547 21.9022 45.5591 21.9022 46.2133C21.9022 47.4649 22.1298 47.4933 32 47.4933C41.8987 47.4933 42.0978 47.4649 42.0978 46.2133C42.0978 45.3316 37.632 38.9884 36.7787 38.6471C36.0107 38.3627 35.8969 38.3627 35.2711 38.5902Z" fill="black" fill-opacity="0.7"/>
</g>
<defs>
<clipPath id="clip0_4_3">
<rect width="64" height="64" fill="white"/>
</clipPath>
</defs>
</svg>
